<svg width="48" height="54" viewBox="0 0 48 54" fill="none" xmlns="http://www.w3.org/2000/svg">
<g id="Frame" clip-path="url(#clip0_7_2498)">
<g id="Group">
<path id="Vector" d="M23.9611 14.7384C16.4074 14.7384 8.85226 14.7384 1.29852 14.7384C0.192164 14.7384 0.00141297 14.5408 0 13.3956C0 11.5696 0 9.74359 0.00141297 7.91904C0.00282594 6.882 0.228901 6.64979 1.2307 6.64979C10.1734 6.64834 19.1161 6.64402 28.0588 6.66132C28.6381 6.66277 28.8684 6.57767 28.8401 5.90122C28.778 4.39109 28.8232 2.8752 28.8189 1.36219C28.8175 0.938144 28.8627 0.548714 29.2697 0.306402C29.7035 0.0482239 30.0228 0.289094 30.3548 0.53429C36.0519 4.72716 41.749 8.91858 47.4504 13.1071C47.7965 13.361 48.0735 13.6494 47.9505 14.1139C47.8092 14.649 47.4009 14.747 46.9049 14.747C39.258 14.7355 31.6096 14.7384 23.9611 14.7384ZM30.482 2.65741C30.482 4.23099 30.4834 5.66467 30.4806 7.09835C30.4792 8.04164 30.2277 8.29693 29.3177 8.29693C23.2674 8.29693 17.2185 8.29693 11.1681 8.29693C8.20229 8.29693 5.23647 8.30991 2.27064 8.28684C1.7761 8.28251 1.63057 8.42097 1.64752 8.92579C1.68567 10.0537 1.70545 11.1874 1.64328 12.3124C1.60513 12.9989 1.83827 13.1244 2.45998 13.123C16.0429 13.1071 29.6243 13.1129 43.2072 13.1158C43.6325 13.1158 44.0564 13.1158 44.4817 13.1158C44.4859 13.0682 44.4902 13.0206 44.4944 12.973C39.8698 9.56618 35.2423 6.16228 30.482 2.65741Z" fill="#4318FF"/>
<path id="Vector_2" d="M23.9951 38.6493C31.5728 38.6493 39.1506 38.6479 46.7298 38.6493C47.7909 38.6493 47.9986 38.8614 48 39.9489C48.0028 41.7749 48.0014 43.6009 48 45.4269C47.9986 46.5144 47.7824 46.7408 46.7382 46.7408C37.7955 46.7408 28.8514 46.7509 19.9088 46.7221C19.2517 46.7206 19.1486 46.9211 19.1655 47.5168C19.2065 49.0053 19.1726 50.4952 19.1825 51.9852C19.1853 52.4381 19.1415 52.8563 18.7035 53.0986C18.2711 53.3381 17.9504 53.0857 17.6169 52.8419C11.958 48.6765 6.29479 44.5168 0.635847 40.3513C0.274126 40.0845 -0.121505 39.8119 0.0537029 39.2479C0.234563 38.6667 0.689539 38.6436 1.18973 38.6436C8.79151 38.6508 16.3933 38.6493 23.9951 38.6493ZM17.5194 50.7289C17.5194 49.2245 17.5194 47.8644 17.5194 46.5029C17.5208 45.2567 17.6819 45.0923 18.8971 45.0923C25.8164 45.0923 32.7357 45.0937 39.6564 45.0937C41.6812 45.0937 43.7046 45.0764 45.728 45.1052C46.2296 45.1124 46.3638 44.9596 46.3483 44.4605C46.3129 43.3326 46.2903 42.1989 46.3553 41.0739C46.3949 40.3773 46.1434 40.2676 45.533 40.2691C31.6943 40.285 17.8543 40.2821 4.01567 40.2878C3.85601 40.2878 3.65254 40.1739 3.50418 40.4162C8.1373 43.8244 12.7605 47.2269 17.5194 50.7289Z" fill="#4318FF"/>
<path id="Vector_3" d="M24.0502 17.147C28.7568 17.147 33.462 17.1456 38.1686 17.147C39.3117 17.147 39.4162 17.2581 39.4176 18.4379C39.4176 23.9621 39.419 29.4862 39.4176 35.0103C39.4176 36.0719 39.258 36.2421 38.2449 36.2421C28.7864 36.2435 19.3266 36.2435 9.86818 36.2407C8.70813 36.2407 8.58521 36.1065 8.58521 34.9108C8.58521 29.4112 8.58521 23.9101 8.58521 18.4105C8.58521 17.297 8.73074 17.1485 9.79329 17.1485C14.5437 17.147 19.2969 17.147 24.0502 17.147ZM24.0728 18.7725C19.6714 18.7725 15.2714 18.7725 10.87 18.7711C10.4955 18.7711 10.1564 18.6846 10.1607 19.3192C10.1875 24.2202 10.1804 29.1198 10.1663 34.0209C10.1649 34.4911 10.2935 34.6238 10.7584 34.6224C19.5838 34.6094 28.4092 34.6094 37.2346 34.6224C37.6839 34.6224 37.8393 34.5185 37.8379 34.031C37.821 29.1545 37.821 24.2779 37.8379 19.4014C37.8393 18.8951 37.6995 18.7581 37.2049 18.7596C32.8275 18.7798 28.4501 18.7725 24.0728 18.7725Z" fill="#4318FF"/>
<path id="Vector_4" d="M24.0021 33.5002C21.2963 33.4988 18.5905 33.5002 15.8832 33.4988C15.0453 33.4988 14.1735 32.7964 14.0619 31.9497C13.9573 31.1507 13.5857 30.7655 12.786 30.7309C12.0979 30.7006 11.2755 29.7299 11.2713 29.0102C11.2642 27.4972 11.2628 25.9842 11.2684 24.4712C11.2713 23.6029 12.0597 22.7231 12.9089 22.6524C13.5645 22.5976 13.9206 22.276 14.0294 21.5966C14.2032 20.525 14.969 19.8903 16.0132 19.8903C21.3316 19.8889 26.65 19.8889 31.967 19.8903C33.0183 19.8903 33.8095 20.5322 33.9678 21.5822C34.0766 22.3034 34.4539 22.6106 35.142 22.6553C35.8909 22.7043 36.7259 23.6274 36.7302 24.389C36.7386 25.9496 36.7372 27.5116 36.7259 29.0722C36.7217 29.717 35.8513 30.7151 35.2197 30.7324C34.4072 30.7554 34.0441 31.1579 33.9325 31.9468C33.811 32.7992 32.9604 33.5002 32.1196 33.5017C29.4152 33.5031 26.7094 33.5002 24.0021 33.5002ZM23.9993 21.5173C21.4814 21.5173 18.9649 21.5303 16.447 21.5072C15.9425 21.5029 15.684 21.6154 15.5907 22.175C15.3901 23.3779 14.6384 24.0731 13.4628 24.2332C12.9668 24.301 12.8496 24.5549 12.8566 25.0063C12.8722 26.1342 12.8736 27.2636 12.8566 28.3929C12.8496 28.8501 12.9767 29.0852 13.4713 29.153C14.6115 29.3117 15.3731 29.978 15.5709 31.1521C15.6769 31.7795 15.9666 31.8877 16.5247 31.8848C21.5351 31.8646 26.5469 31.866 31.5573 31.8834C32.0631 31.8848 32.3175 31.7694 32.4107 31.2141C32.6128 30.0112 33.3645 29.3247 34.5372 29.1516C34.9696 29.0881 35.1519 28.9064 35.1462 28.4564C35.1293 27.2794 35.1321 26.1025 35.1448 24.927C35.149 24.4827 34.9738 24.2938 34.5344 24.2332C33.3899 24.076 32.6325 23.4183 32.4347 22.2399C32.3302 21.624 32.0476 21.4957 31.4824 21.5014C28.9871 21.5317 26.4932 21.5144 23.9993 21.5173Z" fill="#4318FF"/>
<path id="Vector_5" d="M28.3781 26.7328C28.3696 29.192 26.3844 31.1766 23.9456 31.1622C21.5732 31.1492 19.6247 29.1328 19.6233 26.6924C19.6219 24.2246 21.5958 22.2183 24.0191 22.224C26.4353 22.2298 28.3866 24.2476 28.3781 26.7328ZM24.0233 29.4891C25.5507 29.4689 26.7419 28.2386 26.7376 26.6881C26.7334 25.1073 25.49 23.8683 23.9414 23.9015C22.4196 23.9332 21.2327 25.1909 21.2666 26.7371C21.2991 28.3049 22.5058 29.5093 24.0233 29.4891Z" fill="#4318FF"/>
</g>
</g>
<defs>
<clipPath id="clip0_7_2498">
<rect width="48" height="53" fill="white" transform="translate(0 0.193787)"/>
</clipPath>
</defs>
</svg>
