<svg width="52" height="67" viewBox="0 0 52 67" fill="none" xmlns="http://www.w3.org/2000/svg">
<g id="Frame" clip-path="url(#clip0_9_2571)">
<g id="Group">
<path id="Vector" d="M12.307 3.31955C13.0471 5.02429 14.0611 6.62049 14.1006 8.57934C14.1573 11.3104 12.7585 13.2865 10.2815 13.8293C8.48798 14.2215 6.20841 13.1138 4.94034 11.2413C4.17555 10.1114 3.76354 8.83345 3.38608 7.52097C-0.00613403 12.2873 1.08678 19.7946 7.21744 22.0569C8.66807 22.5923 10.1384 23.0882 11.6286 23.5026C13.9599 24.1539 15.8818 25.3357 17.2387 27.3907C17.779 28.2098 18.3957 28.9795 19.0051 29.7492C19.6515 30.5634 20.4138 30.6127 21.1416 29.9121C22.4417 28.6588 23.7048 27.3661 25.042 26.1547C25.5675 25.6786 25.528 25.3677 25.1209 24.8669C24.2969 23.8505 23.5272 22.7896 22.7427 21.7387C21.519 20.103 20.9935 18.2798 21.1317 16.2223C21.2575 14.3449 21.3784 12.4477 20.8628 10.5999C19.834 6.919 17.5322 4.50127 13.77 3.57612C13.5849 3.52925 13.3481 3.60326 13.2938 3.31955C12.9632 3.31955 12.6351 3.31955 12.307 3.31955Z" fill="#4318FF"/>
<path id="Vector_2" d="M51.9848 52.1329C51.5161 51.758 51.6444 51.1733 51.5432 50.6946C50.9462 47.9019 49.4191 45.8987 46.8065 44.6923C44.9093 43.8165 42.9134 43.2392 40.92 42.6767C38.3395 41.9514 36.6545 40.106 35.1224 38.1397C34.3182 37.111 33.8519 37.0567 33.129 38.0608C32.9391 38.3223 32.685 38.5493 32.4284 38.7516C31.2097 39.7137 30.2722 40.7524 31.1998 42.4349C31.2886 42.5977 31.3059 42.8716 31.2319 43.0393C30.3215 45.1092 31.8733 46.8411 31.9967 48.7654C32.12 50.7292 31.9004 52.693 32.194 54.6642C32.7935 58.7225 35.8428 62.4058 40.2712 62.8005C40.3205 62.8055 40.3575 62.919 40.402 62.9831C40.5673 62.9831 40.7301 62.9831 40.8954 62.9831C40.3921 61.6188 39.5163 60.4026 39.2794 58.9347C38.9513 56.9018 39.1067 54.9873 40.7893 53.5293C43.1256 51.5038 46.5376 52.2834 48.4397 55.2538C49.128 56.3294 49.5202 57.5334 49.8928 58.9174C50.549 57.896 50.9018 56.9511 51.262 55.9988C51.6172 55.0614 51.4717 54.0079 51.9873 53.1198C51.9848 52.7917 51.9848 52.4611 51.9848 52.1329Z" fill="#4318FF"/>
<path id="Vector_3" d="M51.9849 53.1198C51.4692 54.0079 51.6123 55.0614 51.2595 55.9989C50.8993 56.9487 50.5466 57.8936 49.8903 58.9174C49.5178 57.5334 49.1255 56.3294 48.4372 55.2538C46.5351 52.2834 43.1256 51.5039 40.7868 53.5293C39.1043 54.9874 38.9489 56.9018 39.277 58.9347C39.5138 60.4026 40.3896 61.6188 40.8929 62.9831C44.3838 62.9831 47.8772 62.9683 51.3681 62.9979C51.8985 63.0029 52.0071 62.8968 51.9997 62.3664C51.9701 59.2825 51.9849 56.2012 51.9849 53.1198Z" fill="#FBFBFB"/>
<path id="Vector_4" d="M0.948658 55.2612C1.06461 57.1584 1.91575 58.8384 3.78579 59.8919C5.60155 60.9132 7.41731 60.7183 9.13192 59.655C9.82023 59.2282 10.437 58.6633 11.0118 58.086C13.9131 55.1798 16.765 52.2267 19.686 49.3427C20.589 48.4521 21.3538 47.596 21.2872 46.2169C21.2329 45.1018 21.8102 44.5196 22.9598 44.7515C24.1662 44.9957 24.8348 44.2531 25.5552 43.5056C25.9401 43.1084 25.9203 42.8198 25.5207 42.4966C25.4886 42.4719 25.4565 42.4423 25.4318 42.4127C24.7855 41.6405 23.4557 41.0607 23.5519 40.1677C23.6358 39.4053 24.8077 38.7516 25.5132 38.0657C31.6859 32.0485 37.8733 26.0437 44.0187 19.9994C44.7095 19.3185 45.5113 19.1951 46.3402 19.1162C48.7604 18.8867 49.9224 17.0093 51.262 15.4082C51.8245 14.7371 51.4175 13.9896 50.8821 13.4247C50.0088 12.502 49.1033 11.6064 48.193 10.7158C47.1766 9.72159 46.392 9.75613 45.3016 10.6344C43.5352 12.053 42.4595 13.8441 42.1339 16.0866C42.0426 16.7231 41.7342 17.2091 41.2753 17.6581C34.7845 23.996 28.2813 30.3216 21.8447 36.7162C20.9294 37.6266 20.3891 37.6019 19.7156 36.6274C19.6934 36.5929 19.6638 36.5608 19.6318 36.5386C19.1531 36.213 18.8349 35.2681 18.2724 35.5666C17.5767 35.9366 16.8193 36.5065 16.6565 37.4539C16.6022 37.7771 16.4887 38.1052 16.5085 38.4234C16.5603 39.2573 16.2494 39.62 15.3761 39.5854C14.3522 39.546 13.5529 39.9654 12.8029 40.7425C9.4403 44.2285 6.00861 47.6503 2.59419 51.0869C1.49635 52.1897 0.968395 53.5096 0.948658 55.2612ZM14.5792 43.2589C14.9715 43.2219 15.1664 43.4834 15.3539 43.7646C15.6622 44.2285 15.3637 44.5393 15.0751 44.8354C12.0899 47.8896 9.09738 50.9364 6.11223 53.9906C5.65089 54.4619 5.1328 54.6592 4.63199 54.1387C4.15831 53.6453 4.43709 53.1839 4.85156 52.762C7.81944 49.7498 10.7799 46.7301 13.7453 43.7128C13.9748 43.4785 14.2091 43.2416 14.5792 43.2589ZM6.92883 56.1148C7.00531 55.762 7.26928 55.503 7.52832 55.239C10.4025 52.3106 13.2791 49.3846 16.1507 46.4538C16.6071 45.9875 17.1079 45.5483 17.7124 46.1207C18.3439 46.7202 17.853 47.2087 17.4065 47.6651C14.5644 50.5664 11.7248 53.4701 8.88275 56.3714C8.68291 56.5761 8.48555 56.8031 8.24131 56.9363C7.68128 57.2472 6.89922 56.7562 6.92883 56.1148Z" fill="#4318FF"/>
<path id="Vector_5" d="M14.5792 43.2589C14.2091 43.2416 13.9747 43.4785 13.7453 43.7129C10.7799 46.7301 7.8194 49.7498 4.85152 52.7621C4.43705 53.1839 4.15581 53.6453 4.63195 54.1387C5.13277 54.6592 5.65085 54.4619 6.11219 53.9907C9.09735 50.9364 12.0899 47.8896 15.075 44.8354C15.3637 44.5393 15.6622 44.2285 15.3538 43.7647C15.1663 43.4834 14.9714 43.2219 14.5792 43.2589Z" fill="#F1F0EF"/>
<path id="Vector_6" d="M6.92882 56.1148C6.89921 56.7562 7.68374 57.2472 8.24129 56.9413C8.48553 56.808 8.6829 56.5786 8.88273 56.3763C11.7248 53.475 14.5644 50.5713 17.4065 47.67C17.853 47.2136 18.3439 46.7251 17.7124 46.1256C17.1079 45.5508 16.6071 45.9924 16.1507 46.4587C13.279 49.3896 10.4024 52.3155 7.52831 55.2439C7.26927 55.503 7.00283 55.762 6.92882 56.1148Z" fill="#F2F0F0"/>
</g>
</g>
<defs>
<clipPath id="clip0_9_2571">
<rect width="52" height="66" fill="white" transform="translate(3.05176e-05 0.208481)"/>
</clipPath>
</defs>
</svg>
