<svg width="48" height="52" viewBox="0 0 48 52" fill="none" xmlns="http://www.w3.org/2000/svg">
<g id="Frame" clip-path="url(#clip0_7_2505)">
<g id="Group">
<path id="Vector" d="M47.9816 28.6745C47.9816 34.1862 47.9657 39.698 47.9975 45.2098C48.0019 46.053 47.8139 46.3476 47.2921 46.5504C43.4932 48.0297 39.7043 49.5689 35.9054 51.0525C34.8284 51.473 33.7587 50.9308 32.6948 50.7707C29.4914 50.2861 26.2938 49.7012 23.0948 49.1547C19.4895 48.5399 15.8843 47.9187 12.2776 47.3082C8.71863 46.7062 5.16109 46.0893 1.59922 45.5364C0.0163274 45.2909 0.010545 45.355 0.010545 43.0474C0.010545 32.7709 0.0163273 22.4945 -0.0010195 12.2181C-0.00246507 11.392 0.0813778 11.0461 0.724654 10.8476C12.0637 7.36166 23.394 3.81807 34.7244 0.278743C35.1869 0.133584 35.5772 0.204028 36.008 0.584004C39.7737 3.91413 43.5524 7.21223 47.3369 10.4933C47.7908 10.886 48.0048 11.2852 47.999 12.1391C47.9628 17.6509 47.9816 23.1627 47.9816 28.6745ZM2.90168 43.374C3.70541 43.6045 4.51059 43.8329 5.33456 43.5874C5.82461 43.4423 5.6309 42.8595 5.6309 42.4625C5.64102 32.6194 5.63958 22.7763 5.63813 12.9332C5.63813 12.6856 5.64247 12.4337 5.62368 12.1882C5.60055 11.8616 5.44153 11.8125 5.25506 11.8445C4.48312 12.0495 3.71119 12.2544 2.93926 12.4593C2.50993 12.47 2.60678 12.9503 2.60678 13.3089C2.60244 23.0602 2.60389 32.8094 2.60533 42.5606C2.60678 42.9001 2.54318 43.3078 2.90168 43.374ZM14.8955 9.44299C14.4127 9.60309 14.6093 10.1795 14.6079 10.5765C14.5963 16.9955 14.5992 23.4167 14.5992 29.8357C14.5992 34.483 14.5949 39.1281 14.6079 43.7753C14.6093 44.1617 14.4084 44.7701 14.936 44.8384C16.0245 44.8917 17.1029 45.2482 18.1986 45.0732C18.6554 44.9643 18.4921 44.4285 18.4935 44.0549C18.5066 41.6726 18.5008 39.2903 18.5008 36.9101C18.5008 27.8441 18.5037 18.7801 18.4921 9.7141C18.4921 9.32345 18.693 8.73214 18.1929 8.59978C17.074 8.70865 15.9754 8.99684 14.8955 9.44299ZM26.9169 6.26229C26.4904 6.29858 26.5974 6.78102 26.5974 7.13752C26.593 19.792 26.593 32.4465 26.5959 45.0988C26.5959 45.4339 26.5179 45.8481 26.8749 45.9335C27.0484 46.3433 27.3505 46.2345 27.5934 46.2686C28.5026 46.3967 29.4191 46.4223 30.3255 46.5739C30.9095 46.6721 31.0801 46.4607 31.0786 45.5364C31.0541 32.4977 31.0627 19.459 31.0613 6.42026C31.0613 6.17264 31.0497 5.92074 31.0627 5.67525C31.0859 5.20989 30.924 5.14798 30.6623 5.2227C29.4148 5.57492 28.1658 5.91647 26.9169 6.26229ZM46.4855 44.6228C47.016 44.563 46.8165 43.9503 46.8165 43.564C46.8295 38.3425 46.8252 33.121 46.8252 27.8996C46.8252 23.0325 46.8295 18.1675 46.8165 13.3004C46.8151 12.914 47.0145 12.3013 46.4826 12.2458C42.8195 9.25727 39.1565 6.26656 35.411 3.21181C35.411 3.65156 35.411 3.95896 35.411 4.26635C35.411 18.5987 35.4197 32.931 35.3937 47.2634C35.3922 48.303 35.5657 48.3756 36.1858 48.1557C39.6133 46.9453 43.0508 45.7947 46.4855 44.6228ZM24.6039 26.4715C24.6054 26.4715 24.6054 26.4715 24.6068 26.4715C24.6068 20.2488 24.5938 14.0283 24.6213 7.80568C24.6256 6.93259 24.4536 6.79597 23.9289 6.97101C23.2046 7.21437 22.4703 7.40862 21.7331 7.53884C21.1447 7.64131 20.9105 7.92095 20.9149 8.90932C20.9496 17.6189 20.9351 26.3306 20.9351 35.0401C20.9351 38.1696 20.9496 41.2969 20.925 44.4264C20.9192 45.1757 20.9799 45.5919 21.5899 45.5962C22.3575 45.6026 23.128 45.7285 23.8898 45.878C24.429 45.9826 24.6242 45.8225 24.6199 44.9216C24.5895 38.7716 24.6039 32.6215 24.6039 26.4715ZM11.7124 27.3488C11.7124 21.9096 11.7052 16.4683 11.7225 11.0291C11.7254 10.3759 11.6445 10.1346 11.179 10.3011C10.6673 10.4847 10.144 10.6832 9.62211 10.7067C9.03087 10.7345 8.93402 11.1187 8.93547 11.8979C8.95137 21.6748 8.94269 31.4538 8.95137 41.2307C8.95281 42.1807 8.67093 43.4828 9.06701 43.9909C9.48189 44.5224 10.342 44.2641 10.9997 44.4264C11.6343 44.5843 11.7312 44.198 11.7269 43.3462C11.6979 38.0138 11.7124 32.6813 11.7124 27.3488Z" fill="#4318FF"/>
<path id="Vector_2" d="M26.9164 6.26249C26.9121 19.0621 26.9077 31.8596 26.902 44.6592C26.902 45.0841 26.8846 45.511 26.8759 45.9358C26.5189 45.8504 26.5969 45.4363 26.5969 45.1011C26.5941 32.4467 26.5941 19.7922 26.5984 7.13985C26.5969 6.78336 26.4914 6.29878 26.9164 6.26249Z" fill="#242424"/>
<path id="Vector_3" d="M18.1982 45.0734C18.1968 32.9163 18.1939 20.7571 18.1924 8.59998C18.6926 8.73233 18.4902 9.32364 18.4917 9.71429C18.5032 18.7803 18.5003 27.8443 18.5003 36.9103C18.5003 39.2926 18.5076 41.6749 18.4931 44.0551C18.4917 44.4266 18.655 44.9645 18.1982 45.0734Z" fill="#1E1E1E"/>
<path id="Vector_4" d="M14.8951 9.44318C14.8994 20.7443 14.9038 32.0475 14.9096 43.3485C14.9096 43.8459 14.9269 44.3412 14.9356 44.8386C14.4094 44.7703 14.6089 44.1619 14.6074 43.7755C14.5944 39.1283 14.5988 34.4832 14.5988 29.8359C14.5988 23.4169 14.5959 16.9957 14.6074 10.5767C14.6089 10.1797 14.4123 9.60115 14.8951 9.44318Z" fill="#212121"/>
<path id="Vector_5" d="M46.485 44.623C46.4952 43.0967 46.5125 41.5725 46.5125 40.0462C46.5154 31.1701 46.514 22.2941 46.5125 13.418C46.5125 13.0295 46.4923 12.6388 46.4821 12.2503C47.0141 12.3058 46.8146 12.9185 46.8161 13.3048C46.8291 18.1698 46.8247 23.0369 46.8247 27.904C46.8247 33.1255 46.8291 38.347 46.8161 43.5684C46.8146 43.9505 47.0156 44.5632 46.485 44.623Z" fill="#202020"/>
<path id="Vector_6" d="M5.33413 43.5855C5.32546 38.1164 5.31534 32.6473 5.311 27.1782C5.30667 22.4542 5.311 17.7301 5.30811 13.006C5.30811 12.6196 5.27487 12.2311 5.25607 11.8447C5.44255 11.8127 5.60156 11.8618 5.62469 12.1884C5.64204 12.4339 5.63915 12.6858 5.63915 12.9334C5.63915 22.7765 5.64204 32.6196 5.63192 42.4626C5.63047 42.8576 5.82273 43.4403 5.33413 43.5855Z" fill="#1E1E1E"/>
<path id="Vector_7" d="M2.94029 12.4595C2.93162 19.2116 2.92294 25.9615 2.91427 32.7135C2.90993 36.2678 2.9056 39.8199 2.90126 43.3742C2.54276 43.3101 2.60637 42.9024 2.60637 42.5608C2.60492 32.8096 2.60492 23.0604 2.60781 13.3091C2.60781 12.9505 2.51096 12.4702 2.94029 12.4595Z" fill="#202020"/>
</g>
</g>
<defs>
<clipPath id="clip0_7_2505">
<rect width="48" height="51" fill="white" transform="translate(0 0.208496)"/>
</clipPath>
</defs>
</svg>
