<svg width="65" height="81" viewBox="0 0 65 81" fill="none" xmlns="http://www.w3.org/2000/svg">
<g id="Frame" clip-path="url(#clip0_2_1896)">
<g id="Group">
<path id="Vector" d="M32.3894 80.7673C24.143 80.9212 15.9842 80.244 8.31947 76.8687C1.64825 73.9294 -0.276926 70.79 0.706254 63.6597C2.01888 54.1338 6.76491 46.629 14.7642 41.1812C15.9636 40.3656 16.7717 40.2733 18.0998 41.1966C26.9484 47.3831 37.9538 47.3677 46.8951 41.1864C48.1923 40.2887 49.0314 40.3348 50.241 41.1761C59.6096 47.6909 64.4585 56.5909 64.5409 67.984C64.5666 71.4363 62.3275 73.5857 59.6301 75.2836C53.6693 79.0334 46.8951 80.0286 40.0798 80.7262C37.542 80.9879 34.9528 80.7673 32.3894 80.7673Z" fill="#4318FF"/>
<path id="Vector_2" d="M11.341 20.5495C11.4646 8.80246 20.9824 -0.590056 32.6416 -0.466943C44.5118 -0.3387 53.7722 9.14102 53.6796 21.0676C53.5921 32.6557 43.9713 41.9148 32.1217 41.8173C20.6118 41.7199 11.2175 32.1068 11.341 20.5495Z" fill="#4318FF"/>
</g>
</g>
<defs>
<clipPath id="clip0_2_1896">
<rect width="64.0714" height="81.3214" fill="white" transform="translate(0.464355 -0.466949)"/>
</clipPath>
</defs>
</svg>
