<svg width="52" height="67" viewBox="0 0 52 67" fill="none" xmlns="http://www.w3.org/2000/svg">
<g id="Frame" clip-path="url(#clip0_3_2238)">
<g id="Group">
<path id="Vector" d="M51.9652 50.9741C47.5329 52.7753 47.2155 53.0943 45.1142 57.8268C44.6577 57.8268 44.1589 57.8268 43.66 57.8268C31.5212 57.8268 19.3793 57.8116 7.24052 57.8511C6.12792 57.8542 5.61092 57.6172 5.22998 56.4447C4.27762 53.5256 2.05846 51.8671 -0.913506 51.0834C-0.937693 50.6217 -0.976996 50.1721 -0.976996 49.7256C-0.986066 42.2866 -0.97095 34.8476 -1.00118 27.4086C-1.00421 26.4366 -0.825828 25.9384 0.235374 25.5769C3.42503 24.4925 5.1816 22.0807 5.7893 18.627C8.73708 18.627 11.6879 18.627 14.805 18.627C14.8685 17.4514 14.9229 16.4247 14.9894 15.1793C17.4534 15.884 17.7467 14.2103 18.2365 12.4728C18.7535 10.6412 20.238 9.6965 22.1094 9.6236C24.3225 9.53551 26.5417 9.55677 28.7578 9.61448C30.7351 9.66612 32.1924 10.8234 32.8122 12.6824C33.5801 14.9788 33.5801 14.9788 35.9716 15.3707C35.9716 15.8385 35.9716 16.3336 35.9716 16.8287C35.9716 17.3299 35.9716 17.8342 35.9716 18.5206C39.0554 18.5206 42.0516 18.5206 44.8845 18.5206C45.5043 19.9665 45.8278 21.3547 46.6138 22.3875C47.4694 23.5174 48.6123 24.7659 49.8791 25.1638C51.9077 25.8047 52.0166 26.9772 51.9984 28.7208C51.9198 36.1021 51.9652 43.4895 51.9652 50.9741ZM24.3225 48.3982C25.2084 49.2274 25.8282 50.2238 26.3361 50.1721C26.9529 50.1083 27.4759 49.1545 28.0413 48.5835C27.9264 48.4681 27.8115 48.3526 27.6966 48.2342C30.3451 47.733 32.0684 46.2506 32.2952 43.5229C32.5431 40.5582 31.0888 38.6324 28.2892 37.6908C28.0231 37.5996 27.6694 37.229 27.6634 36.98C27.612 34.9478 27.6362 32.9157 27.6362 30.8805C27.8387 30.8228 28.0443 30.7621 28.2469 30.7043C28.7669 31.6824 29.2325 32.6909 29.8251 33.6234C30.1455 34.1277 30.6777 34.4922 31.116 34.9205C31.4305 34.3646 32.017 33.8057 32.014 33.2498C32.0049 31.1904 30.9135 29.6959 29.0723 28.8666C28.1985 28.4717 27.4971 28.1832 27.482 27.0167C27.4789 26.6765 26.717 26.0477 26.3633 26.0872C25.9038 26.1389 25.4412 26.6765 25.1026 27.1048C24.9242 27.3296 25.0088 27.767 24.9786 28.0768C20.8215 29.4377 19.337 30.917 19.3158 33.6842C19.2947 36.6124 20.8608 38.2557 24.9847 39.5862C24.9847 41.673 24.9847 43.778 24.9847 45.9438C22.9983 45.7616 21.6287 44.9384 20.8487 43.0733C20.6582 42.6147 19.8328 42.4202 19.2977 42.1074C19.1163 42.6724 18.6688 43.3194 18.814 43.778C19.0951 44.6589 19.5245 45.6978 20.2289 46.199C21.5803 47.1619 23.1676 47.7967 24.3225 48.3982ZM30.4811 18.5055C30.0579 16.9988 29.7525 15.6684 29.2899 14.3956C29.1509 14.0098 28.5915 13.539 28.2015 13.5208C26.3935 13.4266 24.5795 13.4479 22.7685 13.5056C22.4148 13.5178 21.8524 13.7942 21.7587 14.0736C21.2689 15.5165 20.8971 17.0019 20.4738 18.5055C23.8902 18.5055 27.1403 18.5055 30.4811 18.5055Z" fill="#4318FF"/>
<path id="Vector_2" d="M48.0952 18.5785C48.969 18.5785 49.7157 18.5694 50.4625 18.5815C50.9069 18.5876 51.3484 18.6271 51.8774 18.6575C51.8774 20.076 51.8774 21.4217 51.8774 22.7673C50.0785 22.7066 48.6697 21.2273 48.0952 18.5785Z" fill="#4318FF"/>
<path id="Vector_3" d="M-0.904419 22.9131C-0.904419 21.4612 -0.904419 20.1155 -0.904419 18.6757C0.350278 18.6757 1.52637 18.6757 2.7085 18.6757C2.5785 20.7868 1.3752 22.2297 -0.904419 22.9131Z" fill="#4318FF"/>
<path id="Vector_4" d="M51.9199 54.0695C51.9199 55.4091 51.9199 56.4995 51.9199 57.7115C50.7257 57.7115 49.5798 57.7115 48.2646 57.7115C48.8451 55.8039 49.9849 54.68 51.9199 54.0695Z" fill="#4318FF"/>
<path id="Vector_5" d="M-0.919556 57.751C-0.919556 56.4843 -0.919556 55.3878 -0.919556 54.0513C0.973072 54.7195 2.14009 55.8222 2.69941 57.751C1.45681 57.751 0.338165 57.751 -0.919556 57.751Z" fill="#4318FF"/>
<path id="Vector_6" d="M25.0148 30.5891C25.0148 32.764 25.0148 34.8295 25.0148 36.895C23.0859 36.8252 21.8191 35.7286 21.7344 34.0883C21.6317 32.1747 22.7896 30.8958 25.0148 30.5891Z" fill="#4318FF"/>
<path id="Vector_7" d="M27.7238 45.8377C27.7238 43.8177 27.7238 41.9435 27.7238 40.0329C29.4682 40.6282 30.079 41.5304 30.0215 43.3104C29.9792 44.6591 29.4229 45.3061 27.7238 45.8377Z" fill="#4318FF"/>
</g>
</g>
<defs>
<clipPath id="clip0_3_2238">
<rect width="52" height="66" fill="white" transform="translate(0 0.208481)"/>
</clipPath>
</defs>
</svg>
