<svg width="48" height="55" viewBox="0 0 48 55" fill="none" xmlns="http://www.w3.org/2000/svg">
<g id="Frame" clip-path="url(#clip0_6_2399)">
<g id="Group 138">
<path id="Vector" d="M14.3529 29.1659C12.9726 29.2972 11.6303 29.5808 10.3505 30.1024C4.91805 32.3159 1.55992 36.352 0.317429 42.1889C-0.0738869 44.0277 -0.107826 45.8992 0.244888 47.7592C0.777954 50.5698 2.43506 52.3549 5.07244 53.2329C6.57914 53.7341 8.13508 54.0054 9.70833 54.0381C13.7765 54.1237 17.8461 54.1611 21.915 54.1795C26.4397 54.2006 30.9651 54.1992 35.4899 54.1673C37.5835 54.1523 39.6772 54.0462 41.7336 53.5756C42.8304 53.324 43.8845 52.9547 44.8435 52.342C46.5505 51.2512 47.4809 49.6286 47.8003 47.6381C49.1047 39.517 43.8978 31.4244 35.7261 29.5053C35.0506 29.3468 34.3599 29.2543 33.691 29.1346C33.1759 31.3407 32.0366 33.1843 30.9092 35.0157C29.4292 37.4204 27.8539 39.7631 26.3186 42.1317C26.2773 42.195 26.2261 42.2514 26.1303 42.3732C26.0783 41.6802 26.0284 41.0566 25.9865 40.4323C25.8874 38.9525 25.7988 37.4714 25.6904 35.9923C25.6757 35.7882 25.7343 35.693 25.8953 35.5904C26.8004 35.0096 27.3947 34.1962 27.6077 33.1143C27.633 32.9851 27.6323 32.8504 27.6476 32.675C25.2185 33.6747 22.8227 33.6794 20.3437 32.6573C20.4236 33.0286 20.4582 33.3401 20.558 33.627C20.8555 34.4778 21.4025 35.1286 22.1466 35.6155C22.2364 35.674 22.3362 35.8161 22.3302 35.9127C22.1998 38.0263 22.0547 40.1385 21.911 42.2514C21.9096 42.2684 21.889 42.2841 21.8517 42.3358C21.6321 42.0148 21.4185 41.7054 21.2089 41.3939C19.235 38.4663 17.2797 35.5264 15.63 32.3907C15.2693 31.7046 14.9578 30.9898 14.6583 30.273C14.5172 29.9344 14.4587 29.5604 14.3529 29.1659Z" fill="#4318FF"/>
<path id="Vector_2" d="M35.9997 13.2364C35.9032 8.94194 34.4218 5.47097 31.264 2.83373C29.0039 0.946597 26.3758 0.0421311 23.4603 0.214184C19.5797 0.44336 16.5417 2.28969 14.3263 5.52537C12.5999 8.04631 11.8885 10.8842 12.0795 13.9417C12.2679 16.9482 12.781 19.8901 13.9968 22.666C14.9771 24.9047 16.2649 26.9177 18.1223 28.5076C19.7967 29.9405 21.702 30.7994 23.9082 30.8375C25.7223 30.8688 27.3781 30.3077 28.8821 29.2863C31.2387 27.6848 32.8073 25.4263 33.9586 22.8353C35.04 20.4008 35.625 17.8356 35.8313 15.1746C35.8852 14.4755 35.9524 13.7778 35.9997 13.2364Z" fill="#4318FF"/>
</g>
</g>
<defs>
<clipPath id="clip0_6_2399">
<rect width="48" height="54" fill="white" transform="matrix(-1 0 0 1 48 0.193787)"/>
</clipPath>
</defs>
</svg>
