<svg width="15" height="18" viewBox="0 0 15 18" fill="none" xmlns="http://www.w3.org/2000/svg">
<g id="home-icon-silhouette-svgrepo-com 1" clip-path="url(#clip0_9_2590)">
<g id="Group">
<g id="Group_2">
<g id="Group_3">
<path id="Vector" d="M14.7482 7.80612L12.4749 5.22899V2.25197C12.4749 1.71369 12.0901 1.27745 11.6146 1.27745C11.1402 1.27745 10.7554 1.71369 10.7554 2.25197V3.2797L9.06271 1.36075C8.22584 0.412558 6.7708 0.41424 5.93583 1.36247L0.251677 7.80612C-0.0838718 8.18726 -0.0838718 8.80398 0.251677 9.18455C0.587376 9.56559 1.13245 9.56559 1.46803 9.18455L7.15164 2.74073C7.3368 2.53193 7.66314 2.53193 7.84733 2.74011L13.5319 9.18455C13.7005 9.37508 13.9202 9.46986 14.1399 9.46986C14.3601 9.46986 14.5802 9.37498 14.7483 9.18455C15.0839 8.80402 15.0839 8.1873 14.7482 7.80612Z" fill="#A3AED0"/>
<path id="Vector_2" d="M7.79861 4.59059C7.63347 4.40348 7.36608 4.40348 7.20142 4.59059L2.20162 10.2569C2.12269 10.3463 2.07794 10.4685 2.07794 10.5959V14.7287C2.07794 15.6985 2.77156 16.4848 3.62699 16.4848H6.1024V12.1389H8.89709V16.4848H11.3725C12.2279 16.4848 12.9216 15.6985 12.9216 14.7287V10.5959C12.9216 10.4685 12.8772 10.3463 12.7979 10.2569L7.79861 4.59059Z" fill="#A3AED0"/>
</g>
</g>
</g>
</g>
<defs>
<clipPath id="clip0_9_2590">
<rect width="15" height="17.0046" fill="white" transform="translate(0 0.0653076)"/>
</clipPath>
</defs>
</svg>
