<svg width="24" height="25" viewBox="0 0 24 25" fill="none" xmlns="http://www.w3.org/2000/svg">
<g id="more_horiz" clip-path="url(#clip0_5_2337)">
<path id="Vector" d="M6 10.1339C4.9 10.1339 4 11.0339 4 12.1339C4 13.2339 4.9 14.1339 6 14.1339C7.1 14.1339 8 13.2339 8 12.1339C8 11.0339 7.1 10.1339 6 10.1339ZM18 10.1339C16.9 10.1339 16 11.0339 16 12.1339C16 13.2339 16.9 14.1339 18 14.1339C19.1 14.1339 20 13.2339 20 12.1339C20 11.0339 19.1 10.1339 18 10.1339ZM12 10.1339C10.9 10.1339 10 11.0339 10 12.1339C10 13.2339 10.9 14.1339 12 14.1339C13.1 14.1339 14 13.2339 14 12.1339C14 11.0339 13.1 10.1339 12 10.1339Z" fill="#4318FF"/>
</g>
<defs>
<clipPath id="clip0_5_2337">
<rect width="24" height="24" fill="white" transform="translate(0 0.13385)"/>
</clipPath>
</defs>
</svg>
