<svg xmlns="http://www.w3.org/2000/svg" width="58" height="62" viewBox="0 0 58 62" fill="none">
  <path d="M46.6175 44.2055L43.5 40.9151V28.1616C43.5 20.331 39.5367 13.7757 32.625 12.0413V10.3068C32.625 8.18974 31.0058 6.48077 29 6.48077C26.9942 6.48077 25.375 8.18974 25.375 10.3068V12.0413C18.4392 13.7757 14.5 20.3055 14.5 28.1616V40.9151L11.3825 44.2055C9.86 45.8124 10.9233 48.5672 13.0742 48.5672H44.9017C47.0767 48.5672 48.14 45.8124 46.6175 44.2055ZM38.6667 43.4658H19.3333V28.1616C19.3333 21.8359 22.9825 16.6835 29 16.6835C35.0175 16.6835 38.6667 21.8359 38.6667 28.1616V43.4658ZM29 56.2192C31.6583 56.2192 33.8333 53.9236 33.8333 51.1178H24.1667C24.1667 53.9236 26.3175 56.2192 29 56.2192Z" fill="#4318FF"/>
</svg>